<svg xmlns="http://www.w3.org/2000/svg" width="16" height="16" viewBox="0 0 24 24" fill="none">
  <defs>
    <linearGradient id="grad-entertainment-16" x1="2" y1="12" x2="32" y2="12" gradientUnits="userSpaceOnUse">
      <stop stop-color="#818CF8"/>
      <stop offset="1" stop-color="#A78BFA"/>
    </linearGradient>
  </defs>
    <g fill="url(#grad-entertainment-16)" fill-opacity="0.8" stroke="none"><path d="M3 11h18v8a2 2 0 0 1-2 2H5a2 2 0 0 1-2-2Z"/></g>
  <g fill="none" stroke="url(#grad-entertainment-16)" stroke-width="1.9" stroke-linecap="round" stroke-linejoin="round"><path d="M20.2 6 3 11l-.9-2.4c-.3-1.1.3-2.2 1.3-2.5l13.5-4c1.1-.3 2.2.3 2.5 1.3Z"/><path d="m6.2 5.3 3.1 3.9"/><path d="m12.4 3.4 3.1 4"/><path d="M3 11h18v8a2 2 0 0 1-2 2H5a2 2 0 0 1-2-2Z"/></g>
</svg>
