<svg xmlns="http://www.w3.org/2000/svg" width="16" height="16" viewBox="0 0 24 24" fill="none">
  <defs>
    <linearGradient id="grad-food-16" x1="2" y1="12" x2="32" y2="12" gradientUnits="userSpaceOnUse">
      <stop stop-color="#818CF8"/>
      <stop offset="1" stop-color="#A78BFA"/>
    </linearGradient>
  </defs>
    <g fill="url(#grad-food-16)" fill-opacity="0.8" stroke="none"><path d="M3.5 11a8.5 5 0 0 1 17 0z"/><path d="M3.5 17.5h17a2.5 2.5 0 0 1-2.5 2.5H6a2.5 2.5 0 0 1-2.5-2.5z"/></g>
  <g fill="none" stroke="url(#grad-food-16)" stroke-width="1.9" stroke-linecap="round" stroke-linejoin="round"><path d="M3.5 11a8.5 5 0 0 1 17 0z"/><path d="M4 14.5h16"/><path d="M3.5 17.5h17a2.5 2.5 0 0 1-2.5 2.5H6a2.5 2.5 0 0 1-2.5-2.5z"/></g>
</svg>
