<svg xmlns="http://www.w3.org/2000/svg" width="16" height="16" viewBox="0 0 24 24" fill="none">
  <defs>
    <linearGradient id="grad-gift-16" x1="2" y1="12" x2="32" y2="12" gradientUnits="userSpaceOnUse">
      <stop stop-color="#818CF8"/>
      <stop offset="1" stop-color="#A78BFA"/>
    </linearGradient>
  </defs>
    <g fill="url(#grad-gift-16)" fill-opacity="0.25" stroke="none"><path d="M5 12h14v7a2 2 0 0 1-2 2H7a2 2 0 0 1-2-2z"/></g>
  <g fill="none" stroke="url(#grad-gift-16)" stroke-width="1.9" stroke-linecap="round" stroke-linejoin="round"><rect x="3" y="8" width="18" height="4" rx="1"/><path d="M12 8v13"/><path d="M19 12v7a2 2 0 0 1-2 2H7a2 2 0 0 1-2-2v-7"/><path d="M7.5 8a2.5 2.5 0 0 1 0-5A4.8 8 0 0 1 12 8a4.8 8 0 0 1 4.5-5 2.5 2.5 0 0 1 0 5"/></g>
</svg>
