<svg xmlns="http://www.w3.org/2000/svg" width="16" height="16" viewBox="0 0 24 24" fill="none">
  <defs>
    <linearGradient id="grad-iou-16" x1="2" y1="12" x2="32" y2="12" gradientUnits="userSpaceOnUse">
      <stop stop-color="#818CF8"/>
      <stop offset="1" stop-color="#A78BFA"/>
    </linearGradient>
  </defs>
  <g fill="none" stroke="url(#grad-iou-16)" stroke-width="1.9" stroke-linecap="round" stroke-linejoin="round"><path d="m11 17 2 2a1 1 0 1 0 3-3"/><path d="m14 14 2.5 2.5a1 1 0 1 0 3-3l-3.88-3.88a3 3 0 0 0-4.24 0l-.88.88a1 1 0 1 1-3-3l2.81-2.81a5.79 5.79 0 0 1 7.06-.87l.47.28a2 2 0 0 0 1.42.25L21 4"/><path d="m21 3 1 11h-2"/><path d="M3 3 2 14l6.5 6.5a1 1 0 1 0 3-3"/><path d="M3 4h8"/></g>
</svg>
