<svg xmlns="http://www.w3.org/2000/svg" width="20" height="20" viewBox="0 0 24 24" fill="none">
  <defs>
    <linearGradient id="grad-bonus-20" x1="2" y1="12" x2="32" y2="12" gradientUnits="userSpaceOnUse">
      <stop stop-color="#818CF8"/>
      <stop offset="1" stop-color="#A78BFA"/>
    </linearGradient>
  </defs>
    <g fill="url(#grad-bonus-20)" fill-opacity="0.25" stroke="none"><path d="M14.5 7c2.6 1.5 4 4.4 4 7.5 0 3.6-2.9 6.5-6.5 6.5S5.5 18.1 5.5 14.5c0-3.1 1.4-6 4-7.5z"/></g>
  <g fill="none" stroke="url(#grad-bonus-20)" stroke-width="1.6" stroke-linecap="round" stroke-linejoin="round"><path d="M9.5 7h5l1.6-2.9a.6.6 0 0 0-.5-.9H8.4a.6.6 0 0 0-.5.9z"/><path d="M14.5 7c2.6 1.5 4 4.4 4 7.5 0 3.6-2.9 6.5-6.5 6.5S5.5 18.1 5.5 14.5c0-3.1 1.4-6 4-7.5"/><path d="M13.6 12c-.4-.6-1-.9-1.6-.9-1 0-1.8.6-1.8 1.4s.8 1.1 1.8 1.4 1.8.6 1.8 1.4-.8 1.4-1.8 1.4c-.7 0-1.3-.3-1.7-.9"/><path d="M12 10v1M12 16v1"/></g>
</svg>
