<svg xmlns="http://www.w3.org/2000/svg" width="20" height="20" viewBox="0 0 24 24" fill="none">
  <defs>
    <linearGradient id="grad-freelance-20" x1="2" y1="12" x2="32" y2="12" gradientUnits="userSpaceOnUse">
      <stop stop-color="#818CF8"/>
      <stop offset="1" stop-color="#A78BFA"/>
    </linearGradient>
  </defs>
    <g fill="url(#grad-freelance-20)" fill-opacity="0.8" stroke="none"><path d="M5 16V7a1 1 0 0 1 1-1h12a1 1 0 0 1 1 1v9z"/></g>
  <g fill="none" stroke="url(#grad-freelance-20)" stroke-width="1.6" stroke-linecap="round" stroke-linejoin="round"><path d="M20 16V7a2 2 0 0 0-2-2H6a2 2 0 0 0-2 2v9m16 0H4m16 0 1.28 2.55a1 1 0 0 1-.9 1.45H3.62a1 1 0 0 1-.9-1.45L4 16"/></g>
</svg>
