<svg xmlns="http://www.w3.org/2000/svg" width="20" height="20" viewBox="0 0 24 24" fill="none">
  <defs>
    <linearGradient id="grad-miscellaneous-20" x1="2" y1="12" x2="32" y2="12" gradientUnits="userSpaceOnUse">
      <stop stop-color="#818CF8"/>
      <stop offset="1" stop-color="#A78BFA"/>
    </linearGradient>
  </defs>
    <g fill="url(#grad-miscellaneous-20)" fill-opacity="0.8" stroke="none"><path d="M18 2l4 4-4 4z"/><path d="M18 14l4 4-4 4z"/></g>
  <g fill="none" stroke="url(#grad-miscellaneous-20)" stroke-width="1.6" stroke-linecap="round" stroke-linejoin="round"><path d="M2 18h1.4c1.3 0 2.5-.6 3.3-1.7l6.1-8.6c.7-1.1 2-1.7 3.3-1.7H22"/><path d="m18 2 4 4-4 4"/><path d="M2 6h1.9c1.5 0 2.9.9 3.6 2.2"/><path d="M22 18h-5.9c-1.3 0-2.6-.7-3.3-1.8l-.5-.8"/><path d="m18 14 4 4-4 4"/></g>
</svg>
