<svg xmlns="http://www.w3.org/2000/svg" width="20" height="20" viewBox="0 0 24 24" fill="none">
  <defs>
    <linearGradient id="grad-utility-20" x1="2" y1="12" x2="32" y2="12" gradientUnits="userSpaceOnUse">
      <stop stop-color="#818CF8"/>
      <stop offset="1" stop-color="#A78BFA"/>
    </linearGradient>
  </defs>
    <g fill="url(#grad-utility-20)" fill-opacity="0.8" stroke="none"><path d="M6 8a6 6 0 0 1 12 0c0 1.3-.5 2.6-1.5 3.5-.8.8-1.3 1.5-1.5 2.5H9c-.2-1-.7-1.7-1.5-2.5C6.5 10.6 6 9.3 6 8z"/></g>
  <g fill="none" stroke="url(#grad-utility-20)" stroke-width="1.6" stroke-linecap="round" stroke-linejoin="round"><path d="M15 14c.2-1 .7-1.7 1.5-2.5 1-.9 1.5-2.2 1.5-3.5A6 6 0 0 0 6 8c0 1 .2 2.2 1.5 3.5.7.7 1.3 1.5 1.5 2.5"/><path d="M9 18h6"/><path d="M10 22h4"/></g>
</svg>
