<svg id="Layer_1" data-name="Layer 1" xmlns="http://www.w3.org/2000/svg" viewBox="0 0 560 560"><defs><style>.cls-1{fill:#6366f1;}</style></defs><path class="cls-1" d="M326.66,366.53c-2,84.35-69.91,153.58-155.25,156.06-1.59,0-3.17.06-4.75.06a159.93,159.93,0,1,1,67.25-305.18,20,20,0,0,1,5.68,32.32l-8.92,8.91a121.06,121.06,0,0,0-63.8-18c-1.21,0-2.41,0-3.64,0a122.08,122.08,0,0,0,7.09,244.05c52.89-1.54,99.75-42,115.94-91a37.2,37.2,0,0,1,28.89-25.21Z"/><path class="cls-1" d="M165.89,426.14,99.36,358.4a17.43,17.43,0,0,1,.23-24.63h0a17.41,17.41,0,0,1,24.62.22l54.36,55.36a.37.37,0,0,0,.52,0L316.6,250.18a17.17,17.17,0,0,1,24.29-.14l.34.33a17.18,17.18,0,0,1,.15,24.29L191.66,426.18A18.09,18.09,0,0,1,165.89,426.14Z"/><path class="cls-1" d="M488.62,45.6V480H451.87V152.57a16.33,16.33,0,0,0-16.33-16.33h-34.3a16.33,16.33,0,0,0-16.33,16.33V480h-49a21.23,21.23,0,0,0-21.23,21.23h0a21.23,21.23,0,0,0,21.23,21.24H488.62v.14h43.89l4.34,0a18.85,18.85,0,0,0,18.73-18.86V45.6a16.34,16.34,0,0,0-16.33-16.34H505A16.34,16.34,0,0,0,488.62,45.6Z"/></svg>